<svg height="851.21948" viewBox="0 0 343.88268 225.21848" width="1299.7141" xmlns="http://www.w3.org/2000/svg" xmlns:xlink="http://www.w3.org/1999/xlink"><radialGradient id="a" cx="3016.6201" cy="136.7896" gradientTransform="matrix(1 0 0 .99994468 -2621.5394 .006731)" gradientUnits="userSpaceOnUse" r="68.266273"><stop offset=".74108821" stop-color="#fc0"/><stop offset=".92307693"/></radialGradient><g transform="translate(-121.02035 -68.52626)"><g fill="#20af24"><path d="m307.9728 244.75332 12.342-26.46749h-17.3762l-12.3377 26.45833z"/><path d="m293.7445 275.26611 12.3841-26.55777h-17.3762l-12.3841 26.55777z"/><path d="m330.4624 244.75332 12.342-26.46749h-17.3762l-12.3377 26.45833z"/><path d="m316.23409 275.26611 12.342-26.46749-17.33419-.0903-12.38401 26.55777z"/><path d="m353.02477 244.73959 12.33772-26.45833-17.43759.005-12.3377 26.45833z"/><path d="m338.79002 275.26611 12.38409-26.55777h-17.43541l-12.39123 26.55777z"/></g><ellipse cx="395.08105" cy="136.78876" fill="url(#a)" rx="68.266273" ry="68.262497"/><path d="m165.50615 68.79083h-41.9936v19.4659h47.024c14.2167 0 27.3397 7.4363 27.3397 25.37111 0 17.4971-11.8108 24.9335-26.0274 24.9335h-48.3363v66.4899h19.2469v-47.0241h28.8707c28.6519 0 45.7118-20.122 45.7118-45.7116 0-25.58991-16.4038-43.52471-51.8358-43.52471z" stroke-width="5.46792"/><path d="m288.57875 156.02784c20.1345-5.4713 31.7339-22.542 31.7339-43.7709 0-25.60601-16.4141-43.55211-51.8685-43.55211h-42.0202v19.4782h48.8047c14.0067 0 25.6059 7.441 25.6059 25.38711 0 17.5081-11.818 24.9492-26.0437 24.9492h-48.3669v66.5319h19.2593v-47.0538h21.4478l33.7035 47.0538h22.7609z" stroke-width="5.47137"/><path d="m150.68825 249.83624c-11.6298-2.3734-16.614-4.9843-16.614-10.6804 0-6.6458 5.6962-10.4432 15.7833-10.4432 9.2564 0 15.19 4.0348 18.9875 7.7136l5.1029-9.4937c-9.1377-8.4256-20.7676-8.7816-23.853-8.7816-17.2074 0-26.5825 9.375-26.5825 21.3608 0 9.9685 5.8149 17.3261 26.3451 20.7676 10.0871 1.78 16.8514 5.4589 16.8514 11.3924 0 7.0018-6.0522 11.5111-17.2074 11.5111-8.663 0-17.0887-4.0348-23.2596-10.9177l-5.2216 9.4937c1.0681 1.3054 10.4431 11.9859 28.2439 11.9859 17.3261 0 28.0065-9.731 28.0065-22.5476 0-12.4606-8.9004-18.0382-26.5825-21.3609z" stroke-width="2.9668"/><path d="m180.71035 255.89404c0 19.9271 15.3011 36.1771 34.7536 37.719v-10.5566c-13.7591-1.542-24.3157-12.9288-24.3157-27.1624 0-14.1149 10.5566-25.5017 24.3157-27.0437v-10.5566c-19.4525 1.5421-34.7536 17.792-34.7536 37.6003zm40.6842-37.6003v10.5566c13.7591 1.542 24.3157 12.9288 24.3157 27.0437 0 14.2336-10.5566 25.6204-24.3157 27.1624v10.5566c19.4526-1.5419 34.8722-17.7919 34.8722-37.719 0-19.8083-15.4196-36.0582-34.8722-37.6003z" stroke-width="2.96534"/><path d="m445.53715 266.57434c11.1354-3.0259 17.5503-12.4668 17.5503-24.2074 0-14.1613-9.0777-24.0865-28.6858-24.0865h-23.2391v10.7724h26.9912c7.7464 0 14.1614 4.1152 14.1614 14.0403 0 9.683-6.536 13.7983-14.4034 13.7983h-26.7492v36.7952h10.6512v-26.0229h11.8616l18.6398 26.0229h12.5879z" stroke-width="3.02593"/><path d="m248.17915 293.68664h82.0208l4.9351-10.5833h-70.6866l30.2275-64.8229h-11.3343z" stroke-width="2.91935"/><path d="m335.49165 293.68664h11.3771l23.7854-51.0077 23.7857 51.0077h11.3768l-35.1625-75.4062z"/></g></svg>